<?xml version="1.0" standalone="no"?>
<!DOCTYPE svg PUBLIC "-//W3C//DTD SVG 20010904//EN"
 "http://www.w3.org/TR/2001/REC-SVG-20010904/DTD/svg10.dtd">
<svg version="1.0" xmlns="http://www.w3.org/2000/svg"
 width="500.000000pt" height="500.000000pt" viewBox="0 0 500.000000 500.000000"
 preserveAspectRatio="xMidYMid meet">
<metadata>
Created by potrace 1.14, written by Peter Selinger 2001-2017
</metadata>
<g transform="translate(0.000000,500.000000) scale(0.100000,-0.100000)"
fill="#000000" stroke="none">
<path d="M2378 4804 c-3 -3 -77 -7 -165 -9 -157 -3 -169 -4 -229 -31 -19 -8
-86 -17 -160 -20 -80 -4 -140 -12 -157 -21 -15 -7 -32 -11 -37 -8 -18 11 -124
-45 -170 -90 -76 -74 -218 -195 -228 -195 -5 0 -28 -24 -50 -54 -22 -29 -77
-90 -121 -135 -108 -108 -138 -151 -152 -219 -6 -31 -17 -68 -24 -82 -7 -14
-16 -54 -20 -90 -4 -36 -18 -101 -31 -144 -13 -44 -29 -116 -36 -160 -11 -79
-10 -83 22 -186 48 -155 51 -168 60 -255 5 -44 13 -98 18 -120 6 -22 22 -93
36 -158 27 -123 59 -228 96 -312 28 -62 31 -157 8 -200 -9 -16 -17 -50 -19
-75 l-4 -45 50 0 c28 0 56 -4 63 -8 16 -11 16 -7 -8 64 -26 77 -19 119 27 159
106 93 409 194 647 216 87 8 108 -1 137 -59 20 -38 21 -52 16 -157 -5 -101 -4
-113 9 -96 8 11 14 32 14 48 0 15 5 28 10 28 6 0 10 -9 10 -19 0 -29 17 -35
31 -10 24 45 -4 179 -38 179 -17 0 -26 39 -13 55 13 16 133 55 167 55 37 0 55
-24 60 -81 6 -65 22 -98 63 -133 28 -23 70 -35 70 -20 0 3 -20 31 -44 62 -54
69 -86 140 -86 192 0 42 31 77 103 115 20 11 37 23 37 28 0 4 5 5 10 2 6 -3
17 1 26 9 9 9 20 14 25 11 5 -4 9 -1 9 5 0 7 7 10 15 6 8 -3 15 -2 15 2 0 4 8
8 18 8 9 1 56 13 105 27 141 43 245 60 360 61 l108 1 28 -31 c20 -22 32 -52
41 -98 8 -36 18 -66 23 -66 8 0 6 44 -4 79 -3 11 10 18 45 24 45 9 51 8 67
-12 22 -26 39 -27 73 0 l26 20 10 -26 c5 -14 10 -29 10 -32 0 -4 14 -35 31
-70 32 -65 34 -72 49 -205 4 -42 11 -82 15 -88 11 -17 13 -164 2 -177 -6 -9
-5 -13 3 -13 7 0 10 -8 7 -20 -3 -11 1 -27 9 -35 11 -11 12 -19 4 -34 -14 -28
-13 -118 3 -124 6 -2 -1 -3 -17 -1 -24 3 -27 2 -16 -11 9 -10 10 -32 5 -72 -4
-32 -4 -55 1 -51 9 9 44 -30 44 -49 0 -7 -4 -13 -10 -13 -5 0 -10 4 -10 8 0 5
-6 9 -14 9 -10 0 -13 -11 -10 -41 3 -28 2 -35 -4 -22 -15 34 -20 3 -11 -58 6
-33 7 -67 3 -75 -4 -9 -8 -23 -9 -31 -13 -95 -18 -116 -30 -134 -8 -11 -15
-15 -15 -9 0 7 4 14 9 17 5 3 11 17 13 30 5 24 4 24 -18 8 -26 -20 -36 -76
-17 -100 7 -9 13 -23 13 -31 0 -11 -3 -11 -16 0 -20 16 -52 23 -36 7 11 -11
-2 -75 -19 -93 -5 -5 -9 -17 -9 -27 0 -10 -6 -21 -14 -24 -8 -3 -12 -12 -9
-20 6 -17 -36 -106 -47 -99 -5 3 -10 -7 -12 -21 -3 -30 -30 -40 -49 -18 -14
17 -33 19 -23 2 5 -7 3 -8 -6 -3 -7 4 -16 2 -21 -6 -4 -7 -12 -10 -16 -5 -4 5
-2 11 5 13 21 8 13 23 -13 23 -17 0 -25 -6 -25 -17 -1 -15 -3 -15 -19 4 -19
23 -61 32 -61 13 0 -5 4 -10 8 -10 5 0 9 -13 9 -30 0 -33 -1 -34 -26 -21 -14
8 -17 6 -17 -12 1 -16 -7 -24 -31 -32 -18 -5 -33 -13 -33 -18 0 -4 5 -5 11 -1
8 4 7 0 -1 -15 -6 -12 -15 -19 -20 -16 -16 10 -18 -10 -5 -47 11 -35 11 -37
-5 -28 -14 7 -20 5 -25 -8 -6 -16 -7 -16 -19 0 -15 20 -36 6 -36 -24 0 -10 -4
-18 -10 -18 -5 0 -10 -9 -10 -20 0 -22 -15 -27 -23 -7 -3 7 -6 5 -6 -5 -1 -10
4 -18 9 -18 18 0 11 -29 -10 -42 -11 -7 -20 -18 -20 -24 0 -7 -8 -14 -17 -18
-10 -3 -24 -9 -30 -12 -8 -4 -13 2 -13 15 0 12 -4 21 -10 21 -5 0 -10 -5 -10
-12 0 -6 -6 -4 -13 7 -20 27 -40 10 -32 -27 5 -21 4 -28 -4 -24 -6 4 -11 22
-11 41 0 44 -18 55 -26 16 -5 -21 -12 -30 -23 -29 -12 2 -16 -5 -15 -29 2 -29
-1 -33 -23 -33 -20 0 -23 4 -18 20 4 12 0 26 -9 36 -9 8 -16 11 -16 5 0 -6 -9
-11 -20 -11 -11 0 -20 -5 -20 -11 0 -6 -7 -9 -15 -5 -10 4 -15 -1 -16 -17 0
-20 -1 -20 -8 -3 -7 19 -8 19 -15 0 -7 -18 -8 -18 -26 4 -23 27 -46 28 -53 2
-3 -11 -11 -20 -17 -20 -8 0 -10 8 -7 21 6 24 -20 72 -34 63 -5 -3 -9 -17 -9
-32 -1 -24 -3 -23 -20 15 -22 47 -40 48 -57 5 -11 -26 -11 -25 -8 11 4 38 1
40 -45 38 -30 -2 -69 28 -62 48 3 10 -2 13 -22 9 -20 -4 -26 -2 -22 8 3 8 1
14 -4 14 -6 0 -10 7 -10 16 0 11 -6 14 -22 8 -21 -6 -22 -5 -8 11 12 15 12 18
-4 27 -12 7 -16 17 -12 34 4 13 3 24 -2 24 -16 0 -30 -23 -25 -39 4 -14 3 -14
-7 -1 -9 11 -13 12 -17 3 -14 -35 -41 -56 -72 -55 -42 1 -48 7 -29 29 21 24
32 63 19 63 -6 0 -11 -8 -11 -18 0 -19 -39 -62 -56 -62 -15 0 -64 46 -57 54 3
3 1 6 -5 6 -7 0 -12 6 -12 14 0 7 -9 16 -19 19 -10 2 -27 21 -37 42 -15 33
-19 35 -29 21 -17 -23 -25 -20 -36 13 -5 15 -21 34 -35 41 -17 9 -22 19 -18
32 3 12 1 16 -8 13 -18 -6 -47 55 -41 87 3 15 0 34 -6 45 -9 16 -10 14 -11
-12 -1 -48 -18 -8 -21 49 -2 26 -6 49 -10 52 -13 7 -87 248 -105 338 -2 10 -6
21 -9 25 -9 8 -3 -117 6 -154 5 -16 11 -60 14 -97 4 -44 11 -67 18 -65 8 1 13
-16 14 -47 1 -26 7 -54 12 -60 6 -7 10 -21 9 -31 -1 -11 9 -40 22 -65 12 -25
26 -70 31 -100 12 -88 37 -162 63 -189 14 -14 32 -42 40 -61 8 -19 34 -56 58
-81 23 -26 48 -53 55 -60 6 -8 34 -32 61 -54 42 -33 105 -112 121 -149 2 -6
15 -21 28 -34 13 -13 22 -30 19 -38 -3 -8 0 -14 7 -14 7 0 23 -9 35 -20 12
-11 25 -20 29 -20 4 0 17 -11 29 -25 18 -21 25 -23 52 -16 29 9 31 7 37 -19 6
-28 35 -50 35 -27 1 7 6 4 14 -6 13 -17 14 -17 20 0 7 17 8 17 17 0 12 -21 33
-23 25 -2 -3 8 -1 15 4 15 6 0 10 -8 11 -17 0 -11 3 -13 6 -5 2 6 11 12 18 12
7 0 16 6 18 13 4 9 6 9 6 0 2 -21 33 -52 48 -46 9 4 11 0 7 -12 -6 -14 -2 -15
30 -10 20 4 36 3 36 -2 0 -5 21 -8 47 -8 37 0 48 4 51 18 4 19 18 23 24 7 4
-14 58 11 58 28 0 6 7 12 15 12 22 0 30 -4 27 -13 -1 -4 7 -3 18 3 12 6 31 8
43 4 30 -11 48 -6 68 17 9 10 26 19 38 19 12 0 34 9 49 19 15 11 43 21 62 23
19 1 37 5 40 8 3 3 16 14 29 25 21 18 24 18 18 3 -4 -10 -2 -18 4 -18 5 0 2
-11 -7 -25 -24 -37 -6 -30 34 12 20 21 39 37 44 36 4 -2 10 8 14 22 3 14 16
28 28 31 12 3 32 21 45 39 13 19 28 35 33 35 5 0 13 10 18 23 5 12 9 16 9 9 1
-7 13 1 29 17 38 42 45 52 59 83 7 16 17 28 22 28 5 0 12 8 15 18 4 14 5 14 4
-3 -1 -34 1 -36 20 -17 11 10 14 20 8 24 -11 7 18 74 35 80 6 2 12 15 12 30 1
14 5 24 8 22 9 -5 53 95 52 117 -1 10 2 19 8 19 5 0 9 10 9 23 0 13 7 32 15
43 8 10 15 29 15 42 0 12 5 22 11 22 5 0 7 -4 4 -10 -3 -6 1 -7 9 -4 13 5 13
10 4 27 -8 16 -8 22 1 25 6 2 11 12 11 21 0 10 9 26 20 36 13 12 20 31 20 56
0 42 9 71 19 64 4 -2 8 31 9 73 0 42 10 113 21 156 14 51 21 111 21 168 0 88
1 90 32 119 24 22 28 29 15 29 -9 0 -17 6 -17 13 0 9 -3 8 -9 -2 -13 -21 -23
4 -27 68 -4 55 -5 69 -20 179 -6 48 -4 55 16 69 17 12 19 17 9 24 -8 5 -14 14
-14 20 0 7 -6 14 -12 16 -7 3 -13 -2 -13 -11 0 -9 -4 -16 -10 -16 -5 0 -10 22
-10 48 0 26 -4 52 -9 58 -17 18 -50 123 -52 166 -1 23 -5 48 -8 53 -3 6 -6 39
-7 75 0 36 -4 86 -8 112 l-8 48 85 85 c47 47 100 90 116 96 17 6 31 14 31 18
0 4 -20 12 -44 19 -41 11 -45 15 -61 64 -10 29 -21 58 -25 63 -20 27 -38 119
-39 195 0 59 -8 114 -26 180 -15 52 -30 133 -36 180 -14 130 -28 182 -92 350
-62 161 -101 224 -190 305 -134 122 -224 186 -292 209 -28 9 -81 41 -120 72
-38 31 -99 69 -135 85 -36 16 -73 33 -82 39 -9 5 -30 12 -47 15 -16 3 -42 10
-56 15 -30 11 -39 12 -47 4z m-538 -290 c0 -2 -7 -4 -15 -4 -8 0 -15 4 -15 10
0 5 7 7 15 4 8 -4 15 -8 15 -10z m-643 -240 c-3 -3 -12 -4 -19 -1 -8 3 -5 6 6
6 11 1 17 -2 13 -5z m1378 -94 c-4 -6 13 -8 47 -4 56 7 65 7 113 0 17 -2 46
-5 65 -7 46 -4 106 -45 165 -114 26 -30 50 -53 53 -50 6 6 41 -63 42 -82 0 -6
6 -18 14 -25 23 -24 55 -98 51 -119 -2 -11 0 -17 6 -14 8 6 10 -9 13 -80 1
-11 5 -26 10 -34 7 -11 5 -13 -7 -8 -13 5 -14 0 -10 -31 3 -20 5 -45 5 -55 -1
-10 6 -21 14 -24 11 -4 12 -9 3 -19 -9 -11 -9 -14 0 -14 7 0 10 -4 6 -9 -3 -6
3 -18 13 -28 11 -10 27 -40 38 -68 10 -27 21 -52 26 -55 4 -3 8 -21 9 -40 2
-19 6 -42 10 -51 5 -9 11 -60 13 -114 3 -54 8 -118 12 -141 6 -40 4 -43 -17
-48 -13 -3 -57 -12 -97 -21 l-74 -16 -36 32 -36 32 -115 -6 c-123 -5 -261 -30
-272 -49 -4 -6 -14 -8 -23 -5 -9 4 -16 3 -16 -1 0 -11 -89 -34 -102 -26 -7 5
-8 2 -3 -6 6 -9 2 -10 -15 -5 -15 5 -20 4 -16 -4 4 -6 2 -9 -7 -6 -23 9 -179
-64 -245 -115 -97 -75 -153 -93 -299 -96 -66 -1 -150 -5 -185 -9 -67 -7 -277
-63 -358 -95 -69 -27 -211 -96 -238 -116 -22 -16 -22 -16 -22 14 0 17 -5 34
-10 37 -18 11 -11 23 15 23 13 0 22 -4 19 -9 -3 -5 -1 -9 5 -9 16 0 23 20 12
34 -9 10 -7 15 9 19 12 3 26 19 33 37 7 19 21 33 37 37 14 3 31 15 38 25 7 10
20 18 28 18 13 0 18 12 15 32 -2 16 143 41 312 54 37 3 67 8 67 11 0 3 -11 16
-25 29 -14 13 -25 29 -25 37 0 20 -37 50 -51 42 -8 -6 -7 -10 5 -17 9 -5 16
-14 16 -20 0 -6 -8 -3 -19 6 -10 9 -35 19 -55 23 -19 3 -33 10 -30 15 7 11
-33 1 -100 -24 -28 -11 -60 -21 -71 -23 -11 -1 -23 -3 -27 -4 -4 0 -35 -25
-70 -54 -67 -58 -128 -94 -128 -77 0 5 -5 10 -11 10 -7 0 -10 -18 -9 -47 3
-66 1 -83 -9 -83 -8 0 -27 85 -23 103 2 4 -4 15 -13 23 -9 9 -15 33 -15 57 0
39 -21 119 -41 160 -6 10 -5 17 1 17 16 0 12 25 -9 46 -19 21 -41 121 -41 187
0 20 -3 37 -7 37 -14 0 -3 141 12 156 8 9 16 10 20 4 3 -5 1 -10 -4 -10 -20 0
-11 -25 22 -64 30 -35 35 -38 55 -27 23 12 30 31 12 31 -5 0 -10 7 -10 15 0 8
5 15 12 15 8 0 9 28 4 102 -7 105 5 198 29 228 6 8 17 29 24 45 25 63 132 155
181 155 9 0 23 7 30 15 6 8 37 21 68 30 32 9 75 25 97 35 22 10 59 24 83 30
23 6 42 15 42 21 0 6 5 7 10 4 6 -3 10 -1 10 5 0 7 7 9 15 6 46 -18 50 -19 30
-3 -16 12 -17 18 -8 28 10 10 16 9 31 -4 10 -9 25 -17 33 -17 12 0 12 -2 -1
-10 -26 -16 -4 -20 53 -9 44 9 57 16 57 30 0 15 7 18 36 17 25 -1 41 4 50 17
8 11 14 13 14 6 0 -7 4 -10 9 -7 5 4 22 1 38 -5 24 -9 30 -8 41 10 11 15 21
18 48 14 30 -5 36 -3 41 17 5 19 11 21 39 17 18 -3 58 2 91 13 32 10 76 21 98
25 22 3 63 11 90 16 28 6 65 13 83 16 18 3 35 9 38 14 3 5 10 9 15 9 6 0 7 -4
4 -10z m-1574 -872 c11 -21 11 -22 -4 -9 -10 7 -17 17 -17 22 0 15 9 10 21
-13z m2319 -412 c0 -2 -7 -9 -15 -16 -12 -10 -15 -10 -15 4 0 9 7 16 15 16 8
0 15 -2 15 -4z m-1174 -211 c-11 -8 -25 -15 -30 -15 -6 1 0 7 14 15 32 19 40
18 16 0z m-966 -9 c0 -2 -8 -10 -17 -17 -16 -13 -17 -12 -4 4 13 16 21 21 21
13z m910 -16 c-8 -5 -19 -10 -25 -10 -5 0 -3 5 5 10 8 5 20 10 25 10 6 0 3 -5
-5 -10z m-323 -26 c-3 -3 -12 -4 -19 -1 -8 3 -5 6 6 6 11 1 17 -2 13 -5z
m1568 -1334 c3 -5 1 -10 -4 -10 -6 0 -11 5 -11 10 0 6 2 10 4 10 3 0 8 -4 11
-10z m-24 -451 c-5 -13 -10 -19 -10 -12 -1 15 10 45 15 40 3 -2 0 -15 -5 -28z
m-856 -170 c-10 -15 -25 -10 -19 6 4 8 10 12 15 9 5 -3 7 -10 4 -15z m-368
-321 c-3 -7 -5 -2 -5 12 0 14 2 19 5 13 2 -7 2 -19 0 -25z"/>
<path d="M3120 3700 c0 -5 5 -10 10 -10 6 0 10 5 10 10 0 6 -4 10 -10 10 -5 0
-10 -4 -10 -10z"/>
<path d="M2758 3177 c52 -12 55 -27 5 -27 l-38 0 49 -28 c46 -25 48 -27 23
-30 -14 -2 -41 3 -59 12 -36 16 -118 26 -118 14 0 -4 -10 -4 -23 1 -27 11
-141 -16 -177 -41 -13 -10 -30 -18 -36 -18 -6 0 -19 -9 -29 -20 -9 -10 -20
-19 -24 -18 -20 2 -30 -4 -25 -16 3 -8 1 -17 -5 -21 -6 -3 -11 -10 -11 -15 0
-4 15 7 34 26 44 44 61 44 35 -1 -12 -20 -16 -35 -10 -35 6 0 11 5 11 10 0 6
4 10 9 10 5 0 7 -9 4 -19 -5 -19 -3 -18 59 2 34 12 65 25 66 30 2 4 8 5 12 2
5 -3 34 6 64 19 31 14 56 23 56 21 0 -2 15 2 33 9 43 18 224 16 236 -2 6 -10
18 -11 52 -3 24 5 45 8 48 5 2 -2 -2 -4 -10 -4 -11 0 -11 -2 1 -10 23 -15 60
-12 67 6 3 8 11 13 18 10 20 -7 12 46 -10 72 -61 72 -63 74 -70 51 -4 -12 -12
-18 -21 -15 -11 4 -12 2 -5 -13 22 -40 -12 -35 -71 12 -28 21 -38 24 -38 14 0
-9 6 -17 13 -20 6 -2 8 -8 4 -13 -4 -4 -21 6 -38 24 -26 28 -36 32 -77 31
l-47 -1 43 -11z m209 -103 c-3 -3 -12 -4 -19 -1 -8 3 -5 6 6 6 11 1 17 -2 13
-5z"/>
<path d="M2838 3043 c7 -3 16 -2 19 1 4 3 -2 6 -13 5 -11 0 -14 -3 -6 -6z"/>
<path d="M2285 2910 c-8 -13 -1 -24 14 -19 6 3 7 10 2 18 -6 10 -10 10 -16 1z"/>
<path d="M2215 2900 c-8 -13 -1 -24 14 -19 6 3 7 10 2 18 -6 10 -10 10 -16 1z"/>
<path d="M1166 2793 c-6 -14 -5 -15 5 -6 7 7 10 15 7 18 -3 3 -9 -2 -12 -12z"/>
<path d="M3676 2874 c-20 -20 -20 -25 2 -21 23 3 42 16 42 28 0 14 -27 11 -44
-7z"/>
<path d="M2678 2849 c-81 -12 -98 -23 -94 -60 7 -63 81 -102 138 -73 28 15 44
46 32 65 -4 8 -3 9 4 5 8 -5 12 0 12 14 0 17 4 19 28 14 15 -4 33 -11 40 -17
7 -5 45 -12 85 -14 l72 -4 -60 26 c-48 21 -190 59 -198 54 -1 -1 -28 -5 -59
-10z m-8 -43 c0 -2 -3 -11 -6 -20 -5 -12 -9 -13 -24 -4 -10 7 -16 16 -14 20 5
8 44 11 44 4z"/>
<path d="M3551 2586 c-21 -54 -14 -84 24 -102 20 -9 38 -14 41 -11 9 8 -14 79
-35 111 l-20 30 -10 -28z"/>
<path d="M2250 2579 c0 -15 49 -89 59 -89 15 0 23 38 13 56 -11 20 -72 48 -72
33z"/>
<path d="M1530 2538 c-71 -20 -180 -113 -219 -187 -13 -23 -12 -23 15 -17 32
8 36 12 76 80 26 44 58 62 58 33 0 -16 37 -51 63 -60 25 -9 83 17 97 43 7 14
10 39 6 61 -6 37 -5 39 19 39 14 0 25 5 25 10 0 13 -94 11 -140 -2z m5 -38
c-3 -6 1 -7 9 -4 18 7 20 -4 7 -25 -8 -12 -12 -12 -25 -2 -20 17 -21 41 0 41
8 0 12 -4 9 -10z"/>
<path d="M1680 2541 c0 -12 46 -20 60 -11 7 5 3 10 -12 13 -32 9 -48 8 -48 -2z"/>
<path d="M3814 2380 c0 -63 1 -89 3 -57 2 31 2 83 0 115 -2 31 -3 5 -3 -58z"/>
<path d="M1166 2398 c-43 -43 -45 -69 -14 -165 16 -47 24 -61 26 -45 2 12 14
29 27 38 22 14 23 19 18 97 -8 113 -13 119 -57 75z"/>
<path d="M3583 2345 c5 -16 37 -18 37 -3 0 8 -9 14 -20 14 -11 0 -19 -5 -17
-11z"/>
<path d="M1158 2103 c5 -21 7 -23 10 -9 2 10 0 22 -6 28 -6 6 -7 0 -4 -19z"/>
<path d="M2351 2088 c-54 -12 -43 -26 25 -34 44 -5 52 -3 73 20 l24 26 -39 -1
c-21 -1 -59 -6 -83 -11z"/>
<path d="M2535 2045 c-45 -44 -46 -48 -16 -30 32 19 80 71 70 77 -2 2 -26 -19
-54 -47z"/>
<path d="M1052 2069 c2 -6 8 -10 13 -10 5 0 11 4 13 10 2 6 -4 11 -13 11 -9 0
-15 -5 -13 -11z"/>
<path d="M2065 2023 c-67 -20 -81 -35 -30 -32 22 1 49 -1 61 -5 29 -9 76 29
54 44 -19 12 -24 12 -85 -7z"/>
<path d="M2500 1840 c0 -21 24 -59 39 -63 9 -2 28 0 42 4 16 4 32 2 38 -4 8
-8 11 -6 11 6 0 10 -8 17 -20 17 -11 0 -20 4 -20 9 0 5 -8 7 -18 4 -10 -2 -26
5 -36 16 -20 22 -36 27 -36 11z"/>
<path d="M3360 1791 c0 -11 5 -23 10 -26 6 -4 10 5 10 19 0 14 -4 26 -10 26
-5 0 -10 -9 -10 -19z"/>
<path d="M2096 1764 c-9 -24 -7 -54 4 -54 6 0 10 9 10 19 0 11 3 26 6 35 3 9
2 16 -4 16 -5 0 -13 -7 -16 -16z"/>
<path d="M3320 1679 c0 -5 5 -7 10 -4 6 3 10 8 10 11 0 2 -4 4 -10 4 -5 0 -10
-5 -10 -11z"/>
<path d="M2071 1634 c0 -11 3 -14 6 -6 3 7 2 16 -1 19 -3 4 -6 -2 -5 -13z"/>
<path d="M2700 1609 c-124 -15 -189 -30 -250 -58 -80 -37 -70 -39 24 -5 39 14
107 29 154 33 l82 7 -27 -24 c-30 -25 -29 -25 30 2 21 9 51 23 69 30 l31 13
-29 4 c-16 2 -54 1 -84 -2z"/>
<path d="M3333 1587 c-3 -4 3 -17 13 -28 19 -21 34 -11 34 23 0 17 -37 22 -47
5z"/>
<path d="M2280 1496 c-53 -12 -169 -53 -220 -79 -35 -18 -39 -47 -6 -47 16 0
26 6 26 14 0 7 10 20 23 28 30 19 194 78 217 78 11 0 22 5 25 10 7 12 6 12
-65 -4z"/>
<path d="M3241 1389 c-7 -12 -10 -23 -8 -26 3 -3 11 5 17 17 15 28 8 35 -9 9z"/>
<path d="M3280 1348 c0 -19 2 -20 10 -8 13 19 13 30 0 30 -5 0 -10 -10 -10
-22z"/>
<path d="M3576 1165 c3 -27 10 -66 15 -85 6 -19 12 -57 15 -85 3 -27 10 -74
15 -104 14 -83 11 -138 -10 -181 -11 -22 -17 -40 -15 -40 2 0 17 15 34 33 29
32 50 98 50 157 0 15 5 30 12 32 11 4 -12 55 -58 124 -11 17 -26 58 -33 90
-20 91 -31 118 -25 59z"/>
<path d="M1710 930 c0 -5 5 -10 10 -10 6 0 10 5 10 10 0 6 -4 10 -10 10 -5 0
-10 -4 -10 -10z"/>
<path d="M3840 747 c0 -4 22 -63 50 -132 70 -177 80 -216 73 -278 -4 -40 -3
-49 6 -41 7 6 14 26 16 44 5 39 2 36 44 45 24 5 31 4 27 -4 -4 -6 -11 -9 -16
-6 -5 3 -11 1 -14 -4 -4 -5 -2 -12 3 -16 15 -9 1 -35 -23 -45 -16 -7 -10 -9
29 -11 44 -1 46 -2 20 -9 -29 -7 -29 -8 -5 -10 14 -1 31 -2 38 -1 6 1 12 -5
12 -14 0 -12 -4 -13 -18 -6 -13 7 -29 4 -60 -11 -22 -12 -39 -25 -37 -29 3 -4
21 1 40 11 20 10 44 16 55 13 21 -6 28 -23 9 -23 -5 0 -8 -4 -5 -9 3 -5 -1
-11 -9 -14 -9 -4 -12 -1 -8 9 4 10 -1 13 -18 10 -13 -3 -27 -5 -31 -5 -16 -2
-7 -19 12 -24 12 -3 20 -14 20 -26 0 -14 11 -25 36 -36 38 -16 42 -42 6 -37
-12 2 -22 -1 -22 -7 0 -8 18 -9 63 -2 4 0 7 10 7 21 0 11 5 20 11 20 7 0 9
-12 5 -35 -7 -33 -2 -40 25 -37 4 1 19 -10 33 -23 21 -19 38 -25 73 -25 38 0
44 2 34 14 -10 12 -8 13 8 9 12 -3 18 -9 15 -14 -3 -5 16 -9 43 -9 37 0 45 3
33 11 -12 9 -11 9 5 3 11 -4 41 -9 68 -12 42 -4 47 -2 41 15 -5 17 -5 17 6 1
10 -16 28 -18 145 -18 116 0 134 2 129 15 -7 16 8 14 53 -7 11 -6 26 -9 33 -6
15 5 -8 16 -148 72 -79 31 -153 71 -245 133 -73 48 -147 95 -164 105 -85 46
-210 158 -271 241 -45 60 -88 100 -136 123 -17 9 -46 30 -63 47 -18 17 -33 28
-33 24z m170 -293 c0 -8 -5 -12 -10 -9 -6 4 -8 11 -5 16 9 14 15 11 15 -7z m4
-39 c3 -9 0 -15 -9 -15 -8 0 -15 7 -15 15 0 8 4 15 9 15 5 0 11 -7 15 -15z
m101 -115 c3 -5 2 -10 -4 -10 -5 0 -13 5 -16 10 -3 6 -2 10 4 10 5 0 13 -4 16
-10z m52 -16 c-3 -3 -12 -4 -19 -1 -8 3 -5 6 6 6 11 1 17 -2 13 -5z m-42 -14
c3 -5 1 -10 -4 -10 -6 0 -11 5 -11 10 0 6 2 10 4 10 3 0 8 -4 11 -10z m35 -32
c0 -5 -6 -8 -14 -8 -9 0 -12 7 -9 21 4 16 8 17 14 7 5 -7 9 -16 9 -20z m30
-33 c9 -6 9 -10 -1 -16 -20 -12 -31 -11 -23 2 5 8 -1 10 -20 7 -16 -3 -26 -1
-26 6 0 13 50 13 70 1z m23 -40 c-3 -9 -8 -14 -10 -11 -3 3 -2 9 2 15 9 16 15
13 8 -4z m82 -5 c16 -17 16 -20 3 -15 -9 4 -19 13 -22 21 -7 19 -2 18 19 -6z
m-192 -7 c-4 -11 -8 -13 -11 -5 -2 7 -9 9 -14 6 -7 -4 -8 -2 -4 4 12 19 36 15
29 -5z m265 -27 c2 -19 0 -26 -7 -21 -6 3 -9 11 -5 16 3 5 0 17 -8 26 -11 14
-11 16 2 11 8 -2 16 -17 18 -32z m72 14 c0 -5 -2 -10 -4 -10 -3 0 -8 5 -11 10
-3 6 -1 10 4 10 6 0 11 -4 11 -10z m-167 -20 c-3 -12 -8 -19 -11 -16 -5 6 5
36 12 36 2 0 2 -9 -1 -20z m277 10 c0 -5 -2 -10 -4 -10 -3 0 -8 5 -11 10 -3 6
-1 10 4 10 6 0 11 -4 11 -10z m-311 -39 c-1 -13 -2 -12 -6 2 -3 11 -11 16 -19
13 -14 -6 -19 5 -7 17 10 10 33 -13 32 -32z m191 -14 c0 -4 -18 -7 -40 -5 -52
3 -52 16 0 15 22 -1 40 -6 40 -10z m-95 -7 c-3 -5 -10 -10 -16 -10 -5 0 -9 5
-9 10 0 6 7 10 16 10 8 0 12 -4 9 -10z m-79 -7 c-10 -11 -37 -12 -30 -2 3 5
12 9 21 9 9 0 13 -3 9 -7z m44 -13 c0 -5 -2 -10 -4 -10 -3 0 -8 5 -11 10 -3 6
-1 10 4 10 6 0 11 -4 11 -10z m140 0 c0 -5 -2 -10 -4 -10 -3 0 -8 5 -11 10 -3
6 -1 10 4 10 6 0 11 -4 11 -10z m64 2 c3 -5 -1 -9 -9 -9 -8 0 -15 4 -15 9 0
10 17 10 24 0z m-230 -17 c4 -10 -1 -15 -15 -15 -17 0 -18 2 -7 15 16 18 15
18 22 0z"/>
<path d="M1930 294 c0 -5 18 -29 41 -54 22 -25 35 -36 30 -25 -13 26 -71 90
-71 79z"/>
<path d="M2056 145 c14 -19 31 -35 37 -35 6 0 -4 16 -23 35 -19 19 -36 35 -37
35 -2 0 8 -16 23 -35z"/>
<path d="M4020 161 c0 -5 5 -13 10 -16 6 -3 10 -2 10 4 0 5 -4 13 -10 16 -5 3
-10 2 -10 -4z"/>
<path d="M3982 106 c7 -8 15 -12 17 -11 5 6 -10 25 -20 25 -5 0 -4 -6 3 -14z"/>
<path d="M2121 77 c2 -1 13 -9 24 -17 19 -14 19 -14 6 3 -7 9 -18 17 -24 17
-6 0 -8 -1 -6 -3z"/>
<path d="M3936 64 c-4 -9 -4 -19 -1 -22 2 -3 7 3 11 12 4 9 4 19 1 22 -2 3 -7
-3 -11 -12z"/>
<path d="M4040 70 c0 -5 5 -10 11 -10 5 0 7 5 4 10 -3 6 -8 10 -11 10 -2 0 -4
-4 -4 -10z"/>
<path d="M1725 50 c-3 -11 -10 -20 -14 -20 -4 0 -8 -7 -8 -15 0 -8 9 -15 19
-15 14 0 18 8 18 35 0 39 -6 45 -15 15z"/>
<path d="M4104 25 c1 -27 11 -33 19 -12 4 10 6 10 6 0 1 -7 9 -13 19 -12 10 0
12 3 5 6 -7 2 -13 9 -13 14 0 6 5 7 10 4 6 -3 10 -2 10 4 0 17 -22 24 -31 10
-6 -10 -9 -11 -9 -1 0 6 -4 12 -9 12 -5 0 -8 -11 -7 -25z"/>
<path d="M4180 21 c0 -6 5 -13 10 -16 6 -3 10 1 10 9 0 9 -4 16 -10 16 -5 0
-10 -4 -10 -9z"/>
<path d="M1590 10 c0 -5 16 -9 35 -8 19 1 32 5 29 10 -7 11 -64 10 -64 -2z"/>
</g>
</svg>
